<?xml version="1.0" encoding="utf-8"?>
<!-- Generator: Adobe Illustrator 25.0.1, SVG Export Plug-In . SVG Version: 6.00 Build 0)  -->
<svg version="1.1" id="Livello_1" xmlns="http://www.w3.org/2000/svg" xmlns:xlink="http://www.w3.org/1999/xlink" x="0px" y="0px"
	 viewBox="0 0 1366 59" style="enable-background:new 0 0 1366 59;" xml:space="preserve">
<style type="text/css">
	.st0{fill:#FFFFFF;}
</style>
<g>
	<path class="st0" d="M196.87,26.73c-0.27,0.33-0.75,0.42-1.15,0.58c0.3-0.04,0.64-0.05,0.97-0.09
		C196.75,27.06,196.81,26.88,196.87,26.73z"/>
	<path class="st0" d="M203.41,26.84c-2.63,0.09-4.95,0.21-6.73,0.38c-0.19,0.58-0.42,1.17-0.64,1.76
		C199.04,32.1,201.27,29.7,203.41,26.84z"/>
	<path class="st0" d="M16.87,36.33l5.92-6.97l1.23,6.04c3.46-3.58,4.08-8.3,9.75-6.16c19.97,10.59,41.43-2.35,61.67,4.32
		c-0.15-0.76-0.45-1.21-0.93-1.67c-0.38-0.29-0.77-0.59-1.16-0.93c0.48,0.36,0.86,0.64,1.16,0.93
		c17.03,12.87,26.96-16.16,42.61-4.62l-1.1,2.26c8.14-1.21-1.11,2.26,4.81,5.59c1.12-7.38,10.35-5.72,15.04-8.43
		c-0.73,1.52-2.35,1.36-3.7,2.42c0.88,1.66,1.23,6.05,3.58,4.69c5.2-10.56,16.4-9.49,24.67-12.64c0.99,4.83,8.13,9.07,11.84,16.91
		c0.86-1.74,2.39-5.46,3.78-9.07c-0.36-0.35-0.71-0.77-1.07-1.26c0.34-0.05,0.48-0.29,0.74-0.41c-1.57,0.2-2.49,0.44-2.41,0.76
		c-3.13-4.46,0.32-3.65,0.1-9.21c2.71,0.21,8.31-1.75,8.93,2.5c1.62,0.08,2.69,0.7,4.38,1.55c1.03-0.86,2.12-1.34,3.34-0.83
		l-0.55,0.58c0.19,0.79,0.44,1.28,0.7,1.78c5.29,2.42,12.74-6,17.1-9.87c-4.29,7.05,1.04,7.99,1.11,13.04c0.03,0.03,0.04,0.06,0,0.1
		c0-0.03,0-0.06,0-0.1c-0.38-0.36-5.44-0.63-11.62-0.75c0.48,0.56,0.86,1.48,0.98,3.33c5.82,5.47,9.94-4.8,18.4-1.01
		c-0.55,0.58-1.63,1.76-1.23,3.66c2.98,1.45,5.75-2.66,6.43-5.73c0.75,5.04,7.16,8.68,10.35,6.45c2.79-4.15,2.38-6.06,7.44-5.63
		l-2.22,3.56c5.78,2.88,4.94-4.73,9.36-2.55c0.14,0.05,0.28,0.12,0.44,0.24c-0.15-0.09-0.3-0.17-0.44-0.24
		c-1.54-0.59-1.59,2.61-0.23,3.27c6.23-1.97,6.37-3.92,10.83-11.04l-0.82,5.57c4.98-3.14,14.13-9.37,15.26-3.75
		c-0.63-10.06,11.81-4.94,16.26-4.73c-1.58,0.34-1.87,2.78-2.03,4.02c9.67-7.67,19.57-0.24,29.35-0.38l1.56,8.45
		c5.17-0.33,6.65-17.03,12.25-16.66l-2.03,4.05c9.94-1.35,13.96-0.64,22,0.81l-0.16,5.66c2.88-2.64,6.47-2.61,9.38-5.25
		c6.57,13.76,26.05-7.25,38.08,8.12l0.76-10.56c4.6,0.21,10.49-1.89,12.65,6.03l-1.02-0.16c-0.45,8.08,4.6,0.18,7.47,1.97
		c2.17-0.88,4.34-6.15,2.48-7.74c12.21,5.36,30.35-0.2,37.95,9.36c12.24-3.46,21.48-11.84,34.7-10.75l-0.16,1.25
		c4.46,1.43,13.39,4.29,13.37,13.09c9.52-2.05,15.59-14.16,26.94-10.24l-2.46,3.36c2.88,1.74,7.5-2.47,8.64-3.5
		c1.01,0.18,0.27,1.92,0.13,3.16c2.72,3.01,4.33-1.74,6.5-2.61l-0.88,2.99c9.05,6.05,23.31-5.88,34.95-4.4
		c-2.14,0.88-1.01,4.23-0.14,5.64c4.77-9.82,17.87-7.48,22.74-9.75l-3,3.85c9.49-6.45,8.21,10.33,17.63,3.82l-5.41-5.64
		c3.84,1.67,7.1-0.22,6.18-4.59c4.46,3.25,0.55,7.49,7.28,8.43c0.28,2.74-4.85,1.88-2.64,5.44l9.31,7.29c0-0.01,0-0.02,0-0.04
		c-6.46-5.58,4.81-7.01,0.52-12.03c5.35,3.27-1.12,9.83-0.52,12.03c0.24,0.2,0.39,0.35,0.67,0.58L650,32.84
		c0.29,0.77,1.46,0.97,4.52,0.19c-0.81-12.23,7.73-0.66,3.05-12.56c13.21-0.91,24.37,7.17,35.71,1.5
		c4.65,11.89,22.49,0.44,21.36,15.75c6.41,0.14,11.6-2.92,15.55-9.12c-1.28-1.22-2.91,0.72-4.21,1.48c1.68-3.9,9.39-4.54,12.61-4.48
		c-4.21,3.48-11.02,6.47-14.32,12.32c5.82-1.48,13.94-7.21,17.19-9.12l1.48,7.9c4.91-5.79,4.11,6.37,9.03-1.41l-0.93-2.36
		c9,0.56,9.12-7.29,17.49-8.31l-0.37,3.12c2.88,1.24,7.15-6.14,9.95,1l-5.46,0.3c0.55,5.51,4.73,7.94,6.62,10.73
		c5.79-1.45,2.04-9.01,4.94-9.74c1.23,5.17,0.3,2.77-1.71,7.86c6.47-1.84,15.19-4.03,19.79-10.66c0.29,0.81-0.04,1.96-0.04,1.96
		c6.73,0.93,12.66-8.41,16.78-3.99l-1.3,0.77c5.39,7.58,13.94-7.18,15.05,5.81c2.55,2.42-5.79-0.51-1.7,5.87
		c8.01,4.1,5.3-10.91,12.33-7.24c-0.96-0.41-0.65,0.38-0.98,1.56c5.1-0.29,11.87-1.56,17.49-2.88c-0.24-0.38-0.5-0.7-0.71-1.13
		l1.92,0.83c-0.39,0.1-0.83,0.19-1.21,0.3c6.91,10.58,21.14-2.64,29.07,9.68c-2.32-4.02,1.3-4.94,1.91-6.58
		c0.04-0.27,0.09-0.45,0.09-0.45c0,0.16-0.04,0.3-0.09,0.45c-0.07,0.41-0.11,1.02,0.08,1.51c2.89,0.33,3.25-3.81,4.33-5.54
		c-0.16-0.2-0.27-0.4-0.4-0.69c0.88-0.51,1.31-0.32,1.8-0.01c0.23,0.08,0.49,0.22,0.78,0.46c-0.31-0.14-0.55-0.31-0.78-0.46
		c-0.63-0.2-1.06,0.13-1.4,0.69c2.37,3.75,8-4.04,9.51-1.57c0.04-2.73,2.36-2.01,4.93-1.97c-5.17,3.07-1.66,5.87-3.98,10.16
		c7.71,1.34,8.84-12.04,16.87-9.91l4.44,5.2c0.9-7.89,8.34-4.69,8.17-7.62c-0.4-0.72-0.77-1.47-0.97-2.46
		c0.72,1.18,0.94,1.88,0.97,2.46c1.37,2.46,3.38,3.89,3.08,7.84c3.22-1.9,8.02,2.13,9.35-2.56l-3.19-2.06
		c9.93,2.97,15.88-8.35,23.53-3.09l-0.16,11.82c5.09,4.83,9.41-6.49,13.82,0.66c-1.54-3.96-1.88-2.77,1.38-6.67
		c-1.93-0.82-5.5,2.26-8.72,2.19l6.84-6.94l-10.66,3.36c4.57-4.65,4.24-3.49,2.37-8.26c6.49-3.8,7,5.66,13.17,1.06
		c2.24,1.63-0.06,5.89,2.49,8.3c4.86-3.71,9.3,5.74,12.99,3.72c-0.36,0.33-0.62,0.83-0.53,1.66c3.56-1.12,6.11-0.65,7.14-4.2
		l-3.05-1.3c-0.49-0.06-1.06-0.24-1.75-0.75l1.75,0.75c2.67,0.32,3.11-4.5,8.21-1.73c2.94-2.72,4.61-8.57,1.41-8.64
		c1.3-0.76,4.15,2.43,3.14,5.98c7.95,0.15,3.81-12.61,11.48-6.98c0.65-0.42,1.27-0.53,0.18,0.11c-0.08-0.04-0.1-0.04-0.18-0.11
		c-0.52,0.36-1.08,0.96-0.79,1.67c1.2,0.52,2.27,0.73,3.23,0.63c0.4-0.23,0.92-0.41,1.6-0.51c-0.49,0.28-1.02,0.45-1.6,0.51
		c-3.57,2.1,2.91,8.75-4.31,6.83c0.88,6.3,6.1,1.3,8.65,3.71c3.91-4.25,0.43-9.04,2.4-12.15c-0.04,1.97,1.58,1.99,3.5,2.82
		l-1.86-4.75c1.62,0.01,3.22,0.05,5.17-1.09l-3.26,1.91c3.53,0.84,8.9,8.42,15.09,3.85c-1.65,1.93-4.92,5.78-0.77,8.23
		c6.79-3.03,1.58,1.99,5.42,5.61c6.75-1.04,1.17-8.48,11.13-5.54c1.07,0.02,0.08-2.76-1-4.07c-0.44-0.15-0.85-0.24-1.33-0.45
		c0.31-0.5,0.82-0.16,1.33,0.45c6.37,2.17,10.03-0.64,15.9,1.85c-2.2-1.16-3.36-2.63-0.03-4.57c-1.66,3.9,5.41,3.64,7.96,6.07
		l0.67-2.37c2.04,2.57-0.14,3.59-1.8,4.45c-0.05,0.6-0.47,1.25-1.48,1.42c-0.22-0.58,0.54-0.98,1.48-1.42
		c0.05-0.8-0.54-1.56-1.78-1.36c-3.25,1.9-2.07,10.98,3.07,11.86c5.5-2.24,4.61-8.57,3.67-10.94c7.36,2.52,6.89-10.89,13.93-7.2
		c1.61,0.02,6.96,9.57,12.1,10.47c2.64-5.44-6.38-4.07-3.42-8.72c8.5,13.55,17.47-8.32,28.64-0.22l-1.4,6.65
		c2.59,0.43,5.14,0.88,8.06,0.14l-3.82-3.62c2.59-1.51,8.7-0.2,6.7,4.86c5.86-5.4,7.1-2.23,12.55-0.53
		c-5.78-0.53-0.1-0.92-4.33,2.52c6.07,3.26,6.54,1.04,10.74-0.44c-0.69,2.35,1.52,5.95,3.14,5.96c3.92-4.25,10.66-3.33,16.15-5.58
		l-0.01,1.97c9.2-2.52,19.2,6.69,28.47,0.82c0.17-0.13,0.33-0.14,0.46-0.26l-0.73-0.41c0.08,0.16,0.1,0.3,0.17,0.47
		c-0.11-0.24-0.25-0.43-0.41-0.6l-1.37-0.79c-1.72-0.48-3.77,0.08-3.53-2.08l3.53,2.08c0.53,0.11,1,0.35,1.37,0.79l0.24,0.13
		c-3.19-6.28,7.2-4.42,10.03-7.03c0.62,1.6,0.91,4.36,2.51,4.39c0.09-5.9,3.58-3.06,4.9-5.81c3.19,2.03-0.41,7.07,5.06,6.78
		c2.12-0.51,2.37-3.58,2.12-5.83c-0.25-0.63-0.41-1.3-0.41-2.01c0.17,0.44,0.33,1.18,0.41,2.01c1.15,2.99,4.65,5.33,7.53,6.04
		c-0.98,1.55-2.56-0.46-3.22-0.08c-0.37,3.13,1.58,2,1.53,5.95c2.56,0.43,1.03-5.5,4.24-3.46l-2.97,4.66
		c1.29,1.18,2.92-0.76,3.56-1.12c-1,0.58-1.41,2.13-1.54,3.86h3.81c0.57-4.13-2.09-9.44-1.82-12.91c7.04,3.67,12.58-2.5,18.05-2.8
		l-1.03,5.49c2.66-0.84,3.95-2.08,4.92-4.43l-1.07,0.01l1.96-2.7c-0.28,1.03-0.58,1.94-0.89,2.69l4.11-0.03
		c-2.37,1.97-3.15,3.7-3.33,8.1c4.37-1.52,10.37-0.13,11.5-7.48l-0.17,1.22c5.82,2.63,17.98,4.18,17.59,6.62
		c6.25-2.42,14.19,1.82,14.36-5.45c-0.89,0.43-1.63,1.54-2.2,3.85c0.39-2.46,0.74-8.08,1.75-7.83c0.34,1.63,0.47,2.91,0.45,3.98
		c3.73-1.75,9.67,9.38,12.33,0.25c4.42,4.82,0.24,1.96-1.12,7.36c4.42,4.8,8.92-7.46,10.39,3.01c5.16-3.23-1.2-2.17,0.54-6.81
		c1.09,9.73,9.59,1.57,14.43,7.13c2.03-3.68-1.65-2.6,0.9-5.84V0H0v28.91C6.09,30.99,10.91,39.94,16.87,36.33z M1364.01,30.34
		c-3.19,0.52-1.58,3.44-0.35,5.61l-7.01-1.63C1365.83,35.2,1355.17,23.86,1364.01,30.34z M1335.05,26.79
		c-0.2,1.23,3.61,3.37-0.16,4.38C1332.08,29.27,1332.66,28.77,1335.05,26.79z M1178.11,26.04l-0.38,5.12
		C1178.08,28.02,1175.21,26.77,1178.11,26.04z M1131.21,20.42l-1.27,0.73l-3.58,1.12L1131.21,20.42z M1002.94,30.35
		c0.74,0.71-0.16,0.72-0.98,1.15C1002.29,31.23,1002.62,30.86,1002.94,30.35z M866.86,29.27l-0.88-6.3
		C869.24,21.06,868.83,28.14,866.86,29.27z M752.04,29.39c-1.3,0.81-3.86-1.65-6.42-2.08C747.59,24.21,750.8,26.24,752.04,29.39z
		 M412.59,17.02l-2.29,2.11l-2.03-0.35L412.59,17.02z"/>
	<path class="st0" d="M198.95,19.93c-0.34,0.74-0.54,1.75-0.71,2.82c0.05-0.24,0.16-0.48,0.21-0.69c1.3-0.39,2.3-0.58,3.15-0.67
		C201.35,20.24,200.75,19.14,198.95,19.93z"/>
</g>
</svg>
