<?xml version="1.0" encoding="utf-8"?>
<!-- Generator: Adobe Illustrator 25.0.1, SVG Export Plug-In . SVG Version: 6.00 Build 0)  -->
<svg version="1.1" id="Livello_1" xmlns="http://www.w3.org/2000/svg" xmlns:xlink="http://www.w3.org/1999/xlink" x="0px" y="0px"
	 viewBox="0 0 512 512" style="enable-background:new 0 0 512 512;" xml:space="preserve">
<style type="text/css">
	.st0{fill:#334155;}
</style>
<g>
	<path class="st0" d="M496.72,312.15c-9.71-14.77-22.57-27.21-38.6-37.33c-16.04-10.12-34.7-17.93-56-23.41
		c-21.31-5.49-43.56-8.23-66.75-8.23c-5.91,0-13.51,0.52-22.78,1.58c-9.28,1.05-17.51,2.21-24.68,3.48V39.43h70.24v-8.86l-118.96,0
		c-5.9,0-11.81-0.1-17.72-0.32c-5.9-0.21-11.81-0.52-17.72-0.95c-5.9,0-11.71-0.1-17.4-0.32c-5.69-0.21-11.49-0.32-17.4-0.32
		c-24.05,0-46.29,2.85-66.76,8.54c-20.46,5.7-38.17,13.82-53.15,24.36c-14.97,10.55-26.68,23.2-35.12,37.97
		C5.5,114.31,1.28,130.77,1.28,148.9c0,18.98,4.85,35.86,14.55,50.62c9.71,14.77,22.57,27.21,38.6,37.33
		c16.04,10.12,34.7,17.93,56,23.41c21.31,5.49,43.56,8.23,66.75,8.23c5.91,0,13.51-0.52,22.78-1.58c9.28-1.05,17.51-2.21,24.68-3.48
		v208.81H154.4v8.86l118.96,0c5.9,0,11.81,0.1,17.72,0.32c5.81,0.21,11.62,0.51,17.44,0.93c0.18,0.01,0.37,0.02,0.56,0.02
		c5.81,0,11.52,0.1,17.12,0.32c5.69,0.21,11.49,0.32,17.4,0.32c24.05,0,46.29-2.85,66.76-8.54c20.46-5.7,38.17-13.82,53.15-24.36
		c14.97-10.55,26.68-23.2,35.12-37.97c8.43-14.77,12.66-31.22,12.66-49.36C511.28,343.79,506.42,326.91,496.72,312.15z
		 M224.64,254.57c-8.43,1.69-17.29,2.96-26.58,3.8c-9.27,0.85-17.5,1.27-24.68,1.27c-31.21,0-55.57-9.18-73.08-27.53
		c-17.5-18.35-26.26-46.08-26.26-83.21c0-21.51,2.12-39.44,6.33-53.79c4.22-14.34,10.87-25.83,19.93-34.48
		c9.08-8.64,20.88-14.65,35.44-18.03c14.55-3.37,31.95-5.06,52.2-5.06c8.02,0,15.3,0.22,21.83,0.63c6.55,0.43,11.5,0.85,14.87,1.27
		V254.57z M432.18,416.55c-4.22,14.34-10.87,25.83-19.93,34.48c-9.08,8.64-20.88,14.65-35.44,18.03
		c-14.55,3.37-31.95,5.06-52.2,5.06c-8.02,0-15.3-0.22-21.83-0.63c-6.55-0.43-11.5-0.85-14.87-1.27V257.1
		c8.43-1.69,17.29-2.96,26.58-3.8c9.27-0.85,17.5-1.27,24.68-1.27c31.21,0,55.57,9.18,73.08,27.53
		c17.5,18.35,26.26,46.08,26.26,83.21C438.51,384.28,436.4,402.21,432.18,416.55z"/>
</g>
</svg>
